# xmcd
#
# Track frame offsets:
#	150
#	13902
#	30807
#	47200
#	62525
#	75960
#	93135
#	111157
#	129802
#	145412
#	162287
#	179375
#	191982
#	211127
#	225337
#
# Disc length: 3189 seconds
#
# Revision: 1
# Processed by: cddbd v1.5.1PL2 Copyright (c) Steve Scherf et al.
# Submitted via: audiograbber 1.83.01
#
DISCID=b60c730f
DTITLE=Music Maestro - MM6128
DYEAR=1900
DGENRE=Karaoke
TTITLE0=Montgomery, John Michael - Be My Baby Tonight
TTITLE1=Judds, The - Guardian Angels
TTITLE2=Restless Heart - That Rock Won't Roll
TTITLE3=Stone, Doug - Faith In Me, Faith In You
TTITLE4=Judds, The - Girl's Night Out
TTITLE5=McEntire, Reba - Now You Tell Me
TTITLE6=Restless Heart - Hometown Boy
TTITLE7=Greenwood, Lee - Another Year Of Love
TTITLE8=Blackhawk - I Can Sure Smell The Rain
TTITLE9=Supernaw, Doug - Red And Rio Grande
TTITLE10=Judds, The - Change Of Heart
TTITLE11=Collie, Mark - Where There's Smoke
TTITLE12=Judds, The - River Of Time
TTITLE13=Kolander, Steve - Black Dresses
TTITLE14=Hunter, Jesse - Long Legged Hannah
EXTD=As Listed In KJ Pro
EXTT0=
EXTT1=
EXTT2=
EXTT3=
EXTT4=
EXTT5=
EXTT6=
EXTT7=
EXTT8=
EXTT9=
EXTT10=
EXTT11=
EXTT12=
EXTT13=
EXTT14=
PLAYORDER=
